<svg xmlns="http://www.w3.org/2000/svg" viewBox="0 0 24 24" height="24" width="24"><title>design-color-bucket-brush</title><g><path d="M22.86 16.5675H11.43v-1.1400000000000001h-1.1400000000000001v5.715h-1.1475v2.2874999999999996h13.7175v-1.1475H24v-6.855h-1.1400000000000001Zm-9.1425 4.574999999999999h-1.1475v-3.4275h1.1475Zm3.4275 -1.1400000000000001h-1.1400000000000001v-2.2874999999999996h1.1400000000000001Zm2.2874999999999996 0h-1.1475v-2.2874999999999996h1.1475Zm2.2800000000000002 1.1400000000000001h-1.1400000000000001v-3.4275h1.1400000000000001Z" fill="#000000" stroke-width="1"></path><path d="M20.572499999999998 14.287500000000001h2.2874999999999996v1.1400000000000001h-2.2874999999999996Z" fill="#000000" stroke-width="1"></path><path d="M19.4325 13.14h1.1400000000000001v1.1475h-1.1400000000000001Z" fill="#000000" stroke-width="1"></path><path d="M19.4325 5.1450000000000005h1.1400000000000001v3.4275h-1.1400000000000001Z" fill="#000000" stroke-width="1"></path><path d="M18.285 8.5725h1.1475v4.5675h-1.1475Z" fill="#000000" stroke-width="1"></path><path d="M16.005 6.285h2.2800000000000002v2.2874999999999996h-2.2800000000000002Z" fill="#000000" stroke-width="1"></path><path d="M14.857499999999998 8.5725h1.1475v4.5675h-1.1475Z" fill="#000000" stroke-width="1"></path><path d="m19.4325 5.1450000000000005 0 -1.1475 -3.4275 0 0 -1.1400000000000001 -1.1475 0 0 2.2874999999999996 4.574999999999999 0z" fill="#000000" stroke-width="1"></path><path d="M13.7175 13.14h1.1400000000000001v1.1475h-1.1400000000000001Z" fill="#000000" stroke-width="1"></path><path d="m14.857499999999998 5.1450000000000005 -1.1400000000000001 0 0 2.2800000000000002 -1.1475 0 0 1.1475 2.2874999999999996 0 0 -3.4275z" fill="#000000" stroke-width="1"></path><path d="M11.43 14.287500000000001h2.2874999999999996v1.1400000000000001h-2.2874999999999996Z" fill="#000000" stroke-width="1"></path><path d="m11.43 3.9975 0 -1.1400000000000001 -6.855 0 0 1.1400000000000001 -2.2874999999999996 0 0 1.1475 1.1400000000000001 0 0 1.1400000000000001 1.1475 0 0 1.1400000000000001 6.855 0 0 -1.1400000000000001 1.1400000000000001 0 0 -1.1400000000000001 1.1475 0 0 -1.1475 -2.2874999999999996 0z" fill="#000000" stroke-width="1"></path><path d="M12.57 1.7175h2.2874999999999996v1.1400000000000001h-2.2874999999999996Z" fill="#000000" stroke-width="1"></path><path d="m3.4275 8.5725 0 1.1400000000000001 6.862500000000001 0 0 1.1475 1.1400000000000001 0 0 -1.1475 1.1400000000000001 0 0 -1.1400000000000001 -9.1425 0z" fill="#000000" stroke-width="1"></path><path d="M8.0025 10.86h2.2874999999999996V12h-2.2874999999999996Z" fill="#000000" stroke-width="1"></path><path d="M5.715 12h2.2874999999999996v1.1400000000000001H5.715Z" fill="#000000" stroke-width="1"></path><path d="M3.4275 0.5700000000000001h9.1425v1.1475H3.4275Z" fill="#000000" stroke-width="1"></path><path d="M3.4275 18.855h5.715v1.1475H3.4275Z" fill="#000000" stroke-width="1"></path><path d="M2.2874999999999996 13.14h3.4275v1.1475H2.2874999999999996Z" fill="#000000" stroke-width="1"></path><path d="M2.2874999999999996 17.715h1.1400000000000001v1.1400000000000001H2.2874999999999996Z" fill="#000000" stroke-width="1"></path><path d="M2.2874999999999996 7.425000000000001h1.1400000000000001v1.1475H2.2874999999999996Z" fill="#000000" stroke-width="1"></path><path d="M1.1475 1.7175h2.2800000000000002v1.1400000000000001H1.1475Z" fill="#000000" stroke-width="1"></path><path d="M1.1475 16.5675h1.1400000000000001v1.1475H1.1475Z" fill="#000000" stroke-width="1"></path><path d="m1.1475 12 0 -4.574999999999999 1.1400000000000001 0 0 -1.1400000000000001 -1.1400000000000001 0 0 -3.4275 -1.1475 0 0 13.71 1.1475 0 0 -3.4275 1.1400000000000001 0 0 -1.1400000000000001 -1.1400000000000001 0z" fill="#000000" stroke-width="1"></path></g></svg>