<svg xmlns="http://www.w3.org/2000/svg" viewBox="0 0 24 24" height="24" width="24"><title>design-dropper-2</title><g><path d="M22.86 2.2874999999999996h-1.1475V1.1400000000000001h-1.1400000000000001V0h-3.4275v1.1400000000000001h-1.1400000000000001v1.1475h-1.1475v1.1400000000000001h-1.1400000000000001v1.1400000000000001h1.1400000000000001v1.1475h1.1475v1.1400000000000001h1.1400000000000001v1.1400000000000001h1.1400000000000001v1.1475h1.1475v1.1400000000000001h1.1400000000000001v-1.1400000000000001h1.1400000000000001v-1.1475h1.1475V6.855H24V3.4275h-1.1400000000000001Zm0 3.4275h-1.1475v1.1400000000000001h-1.1400000000000001v1.1400000000000001h-1.1400000000000001V6.855h1.1400000000000001V5.715h1.1400000000000001V4.5675h-1.1400000000000001V3.4275h1.1400000000000001v1.1400000000000001h1.1475Z" fill="#000000" stroke-width="1"></path><path d="M20.572499999999998 10.2825h1.1400000000000001v3.4275h-1.1400000000000001Z" fill="#000000" stroke-width="1"></path><path d="M17.145 13.71h3.4275v1.1475h-3.4275Z" fill="#000000" stroke-width="1"></path><path d="M16.005 12.57h1.1400000000000001v1.1400000000000001h-1.1400000000000001Z" fill="#000000" stroke-width="1"></path><path d="M14.857499999999998 13.71h1.1475v1.1475h-1.1475Z" fill="#000000" stroke-width="1"></path><path d="M14.857499999999998 11.43h1.1475v1.1400000000000001h-1.1475Z" fill="#000000" stroke-width="1"></path><path d="M13.7175 14.857499999999998h1.1400000000000001v1.1400000000000001h-1.1400000000000001Z" fill="#000000" stroke-width="1"></path><path d="M13.7175 10.2825h1.1400000000000001v1.1475h-1.1400000000000001Z" fill="#000000" stroke-width="1"></path><path d="M12.57 15.997499999999999h1.1475v1.1400000000000001h-1.1475Z" fill="#000000" stroke-width="1"></path><path d="M12.57 9.1425h1.1475v1.1400000000000001h-1.1475Z" fill="#000000" stroke-width="1"></path><path d="M11.43 17.137500000000003h1.1400000000000001v1.1475h-1.1400000000000001Z" fill="#000000" stroke-width="1"></path><path d="M11.43 7.995h1.1400000000000001v1.1475h-1.1400000000000001Z" fill="#000000" stroke-width="1"></path><path d="M10.290000000000001 2.2874999999999996h3.4275v1.1400000000000001h-3.4275Z" fill="#000000" stroke-width="1"></path><path d="M10.290000000000001 18.285h1.1400000000000001v1.1400000000000001h-1.1400000000000001Z" fill="#000000" stroke-width="1"></path><path d="M10.290000000000001 6.855h1.1400000000000001v1.1400000000000001h-1.1400000000000001Z" fill="#000000" stroke-width="1"></path><path d="M9.1425 19.424999999999997h1.1475v1.1475h-1.1475Z" fill="#000000" stroke-width="1"></path><path d="M9.1425 11.43h1.1475v1.1400000000000001h-1.1475Z" fill="#000000" stroke-width="1"></path><path d="M9.1425 7.995h1.1475v1.1475h-1.1475Z" fill="#000000" stroke-width="1"></path><path d="M9.1425 3.4275h1.1475v3.4275h-1.1475Z" fill="#000000" stroke-width="1"></path><path d="M8.0025 12.57h1.1400000000000001v1.1400000000000001h-1.1400000000000001Z" fill="#000000" stroke-width="1"></path><path d="M8.0025 9.1425h1.1400000000000001v1.1400000000000001h-1.1400000000000001Z" fill="#000000" stroke-width="1"></path><path d="M4.574999999999999 20.572499999999998h4.5675v1.1400000000000001H4.574999999999999Z" fill="#000000" stroke-width="1"></path><path d="M6.862500000000001 13.71h1.1400000000000001v1.1475H6.862500000000001Z" fill="#000000" stroke-width="1"></path><path d="M6.862500000000001 10.2825h1.1400000000000001v1.1475H6.862500000000001Z" fill="#000000" stroke-width="1"></path><path d="M5.715 14.857499999999998h1.1475v1.1400000000000001H5.715Z" fill="#000000" stroke-width="1"></path><path d="M5.715 11.43h1.1475v1.1400000000000001H5.715Z" fill="#000000" stroke-width="1"></path><path d="M4.574999999999999 15.997499999999999h1.1400000000000001v2.2874999999999996H4.574999999999999Z" fill="#000000" stroke-width="1"></path><path d="M4.574999999999999 12.57h1.1400000000000001v1.1400000000000001H4.574999999999999Z" fill="#000000" stroke-width="1"></path><path d="M3.4275 21.7125H4.574999999999999v1.1400000000000001H3.4275Z" fill="#000000" stroke-width="1"></path><path d="M3.4275 13.71H4.574999999999999v1.1475H3.4275Z" fill="#000000" stroke-width="1"></path><path d="M2.2874999999999996 22.8525h1.1400000000000001V24H2.2874999999999996Z" fill="#000000" stroke-width="1"></path><path d="M2.2874999999999996 14.857499999999998h1.1400000000000001v4.5675H2.2874999999999996Z" fill="#000000" stroke-width="1"></path><path d="M1.1475 21.7125h1.1400000000000001v1.1400000000000001H1.1475Z" fill="#000000" stroke-width="1"></path><path d="M1.1475 19.424999999999997h1.1400000000000001v1.1475H1.1475Z" fill="#000000" stroke-width="1"></path><path d="M0 20.572499999999998h1.1475v1.1400000000000001H0Z" fill="#000000" stroke-width="1"></path></g></svg>