<svg xmlns="http://www.w3.org/2000/svg" viewBox="0 0 24 24" height="24" width="24"><title>design-layer</title><g><path d="M22.28625 6.285h1.1400000000000001V7.425000000000001h-1.1400000000000001Z" fill="#000000" stroke-width="1"></path><path d="M19.99875 7.425000000000001h2.2874999999999996v1.1475h-2.2874999999999996Z" fill="#000000" stroke-width="1"></path><path d="M19.99875 5.1450000000000005h2.2874999999999996v1.1400000000000001h-2.2874999999999996Z" fill="#000000" stroke-width="1"></path><path d="m17.71125 17.715 0 1.1400000000000001 -2.2800000000000002 0 0 1.1475 -2.2874999999999996 0 0 1.1400000000000001 -2.2874999999999996 0 0 -1.1400000000000001 -2.2874999999999996 0 0 -1.1475 -2.2800000000000002 0 0 -1.1400000000000001 -2.2874999999999996 0 0 -1.1475 -3.4275 0 0 1.1475 1.1400000000000001 0 0 1.1400000000000001 2.2874999999999996 0 0 1.1475 2.2874999999999996 0 0 1.1400000000000001 2.2800000000000002 0 0 1.1400000000000001 2.2874999999999996 0 0 1.1475 2.2874999999999996 0 0 -1.1475 2.2874999999999996 0 0 -1.1400000000000001 2.2800000000000002 0 0 -1.1400000000000001 2.2874999999999996 0 0 -1.1475 2.2874999999999996 0 0 -1.1400000000000001 1.1400000000000001 0 0 -1.1475 -3.4275 0 0 1.1475 -2.2874999999999996 0z" fill="#000000" stroke-width="1"></path><path d="m17.71125 14.287500000000001 0 1.1400000000000001 -2.2800000000000002 0 0 1.1400000000000001 -2.2874999999999996 0 0 1.1475 -2.2874999999999996 0 0 -1.1475 -2.2874999999999996 0 0 -1.1400000000000001 -2.2800000000000002 0 0 -1.1400000000000001 -2.2874999999999996 0 0 -1.1475 -3.4275 0 0 1.1475 1.1400000000000001 0 0 1.1400000000000001 2.2874999999999996 0 0 1.1400000000000001 2.2874999999999996 0 0 1.1475 2.2800000000000002 0 0 1.1400000000000001 2.2874999999999996 0 0 1.1475 2.2874999999999996 0 0 -1.1475 2.2874999999999996 0 0 -1.1400000000000001 2.2800000000000002 0 0 -1.1475 2.2874999999999996 0 0 -1.1400000000000001 2.2874999999999996 0 0 -1.1400000000000001 1.1400000000000001 0 0 -1.1475 -3.4275 0 0 1.1475 -2.2874999999999996 0z" fill="#000000" stroke-width="1"></path><path d="m17.71125 10.86 0 1.1400000000000001 -2.2800000000000002 0 0 1.1400000000000001 -2.2874999999999996 0 0 1.1475 -2.2874999999999996 0 0 -1.1475 -2.2874999999999996 0 0 -1.1400000000000001 -2.2800000000000002 0 0 -1.1400000000000001 -2.2874999999999996 0 0 -1.1475 -3.4275 0 0 1.1475 1.1400000000000001 0 0 1.1400000000000001 2.2874999999999996 0 0 1.1400000000000001 2.2874999999999996 0 0 1.1475 2.2800000000000002 0 0 1.1400000000000001 2.2874999999999996 0 0 1.1400000000000001 2.2874999999999996 0 0 -1.1400000000000001 2.2874999999999996 0 0 -1.1400000000000001 2.2800000000000002 0 0 -1.1475 2.2874999999999996 0 0 -1.1400000000000001 2.2874999999999996 0 0 -1.1400000000000001 1.1400000000000001 0 0 -1.1475 -3.4275 0 0 1.1475 -2.2874999999999996 0z" fill="#000000" stroke-width="1"></path><path d="M17.71125 8.5725h2.2874999999999996v1.1400000000000001h-2.2874999999999996Z" fill="#000000" stroke-width="1"></path><path d="M17.71125 3.9975h2.2874999999999996v1.1475h-2.2874999999999996Z" fill="#000000" stroke-width="1"></path><path d="M15.431249999999999 9.712499999999999h2.2800000000000002v1.1475h-2.2800000000000002Z" fill="#000000" stroke-width="1"></path><path d="M15.431249999999999 2.8575h2.2800000000000002v1.1400000000000001h-2.2800000000000002Z" fill="#000000" stroke-width="1"></path><path d="M13.143749999999999 10.86h2.2874999999999996V12h-2.2874999999999996Z" fill="#000000" stroke-width="1"></path><path d="M13.143749999999999 1.7175h2.2874999999999996v1.1400000000000001h-2.2874999999999996Z" fill="#000000" stroke-width="1"></path><path d="M10.85625 12h2.2874999999999996v1.1400000000000001h-2.2874999999999996Z" fill="#000000" stroke-width="1"></path><path d="M10.85625 0.5700000000000001h2.2874999999999996v1.1475h-2.2874999999999996Z" fill="#000000" stroke-width="1"></path><path d="M8.568750000000001 10.86h2.2874999999999996V12h-2.2874999999999996Z" fill="#000000" stroke-width="1"></path><path d="M8.568750000000001 1.7175h2.2874999999999996v1.1400000000000001h-2.2874999999999996Z" fill="#000000" stroke-width="1"></path><path d="M6.28875 9.712499999999999h2.2800000000000002v1.1475h-2.2800000000000002Z" fill="#000000" stroke-width="1"></path><path d="M6.28875 2.8575h2.2800000000000002v1.1400000000000001h-2.2800000000000002Z" fill="#000000" stroke-width="1"></path><path d="M4.00125 8.5725h2.2874999999999996v1.1400000000000001h-2.2874999999999996Z" fill="#000000" stroke-width="1"></path><path d="M4.00125 3.9975h2.2874999999999996v1.1475h-2.2874999999999996Z" fill="#000000" stroke-width="1"></path><path d="M1.71375 7.425000000000001h2.2874999999999996v1.1475h-2.2874999999999996Z" fill="#000000" stroke-width="1"></path><path d="M1.71375 5.1450000000000005h2.2874999999999996v1.1400000000000001h-2.2874999999999996Z" fill="#000000" stroke-width="1"></path><path d="M0.57375 6.285h1.1400000000000001V7.425000000000001H0.57375Z" fill="#000000" stroke-width="1"></path></g></svg>