<svg xmlns="http://www.w3.org/2000/svg" viewBox="0 0 24 24" height="24" width="24"><title>design-ruler</title><g><path d="M22.8525 1.1475H24v5.715h-1.1475Z" fill="#000000" stroke-width="1"></path><path d="m8.0025 6.862500000000001 0 -5.715 1.1400000000000001 0 0 1.1400000000000001 1.1400000000000001 0 0 -1.1400000000000001 2.2874999999999996 0 0 2.2874999999999996 1.1400000000000001 0 0 -2.2874999999999996 2.2874999999999996 0 0 1.1400000000000001 1.1475 0 0 -1.1400000000000001 2.2800000000000002 0 0 2.2874999999999996 1.1475 0 0 -2.2874999999999996 2.2800000000000002 0 0 -1.1475L4.5675 0l0 1.1475 2.2874999999999996 0 0 5.715 -5.715 0 0 -2.2874999999999996L0 4.574999999999999l0 18.285 1.1400000000000001 0 0 -2.2874999999999996 2.2874999999999996 0 0 -1.1400000000000001 -2.2874999999999996 0 0 -2.2874999999999996 1.1475 0 0 -1.1400000000000001 -1.1475 0 0 -2.2874999999999996 2.2874999999999996 0 0 -1.1400000000000001 -2.2874999999999996 0 0 -2.2874999999999996 1.1475 0 0 -1.1400000000000001 -1.1475 0 0 -1.1475 5.715 0 0 14.857499999999998 1.1475 0 0 -14.857499999999998 14.850000000000001 0 0 -1.1400000000000001 -14.850000000000001 0z" fill="#000000" stroke-width="1"></path><path d="M1.1400000000000001 22.86h5.715V24H1.1400000000000001Z" fill="#000000" stroke-width="1"></path><path d="M3.4275 1.1475h1.1400000000000001v1.1400000000000001H3.4275Z" fill="#000000" stroke-width="1"></path><path d="M2.2874999999999996 2.2874999999999996h1.1400000000000001v1.1475H2.2874999999999996Z" fill="#000000" stroke-width="1"></path><path d="M1.1400000000000001 3.435h1.1475V4.574999999999999H1.1400000000000001Z" fill="#000000" stroke-width="1"></path></g></svg>