<svg xmlns="http://www.w3.org/2000/svg" viewBox="0 0 24 24" height="24" width="24"><title>interface-essential-floppy-disk</title><g><path d="M22.8525 2.2874999999999996H24v20.572499999999998h-1.1475Z" fill="#000000" stroke-width="1"></path><g><path d="M21.7125 1.1400000000000001h1.1400000000000001v1.1475h-1.1400000000000001Z" fill="#000000" stroke-width="1"></path><path d="m20.572499999999998 12.57 -1.1475 0 0 10.290000000000001 -14.857499999999998 0 0 -10.290000000000001 -1.1400000000000001 0 0 10.290000000000001 -2.2874999999999996 0 0 1.1400000000000001 21.7125 0 0 -1.1400000000000001 -2.2800000000000002 0 0 -10.290000000000001z" fill="#000000" stroke-width="1"></path><path d="M13.71 6.855h4.574999999999999V2.2874999999999996h-4.574999999999999Zm1.1475 -3.4275h1.1400000000000001v2.2874999999999996h-1.1400000000000001Z" fill="#000000" stroke-width="1"></path><path d="M6.855 19.424999999999997h10.2825v1.1475H6.855Z" fill="#000000" stroke-width="1"></path><path d="M6.855 15.997499999999999h10.2825v1.1475H6.855Z" fill="#000000" stroke-width="1"></path><path d="M4.5675 11.43H19.424999999999997v1.1400000000000001H4.5675Z" fill="#000000" stroke-width="1"></path><path d="M3.4275 6.855h1.1400000000000001V1.1400000000000001h2.2874999999999996v5.715H4.5675v1.1475h2.2874999999999996v1.1400000000000001h13.7175V1.1400000000000001h1.1400000000000001V0H2.2874999999999996v1.1400000000000001h1.1400000000000001Zm4.5675 -5.715H19.424999999999997v6.862500000000001H7.995Z" fill="#000000" stroke-width="1"></path><path d="M1.1400000000000001 1.1400000000000001h1.1475v1.1475H1.1400000000000001Z" fill="#000000" stroke-width="1"></path><path d="M0 2.2874999999999996h1.1400000000000001v20.572499999999998H0Z" fill="#000000" stroke-width="1"></path></g></g></svg>